<?xml version="1.0" standalone="no"?>
<!DOCTYPE svg PUBLIC "-//W3C//DTD SVG 20010904//EN"
 "http://www.w3.org/TR/2001/REC-SVG-20010904/DTD/svg10.dtd">
<svg version="1.0" xmlns="http://www.w3.org/2000/svg"
 width="500.000000pt" height="500.000000pt" viewBox="0 0 500.000000 500.000000"
 preserveAspectRatio="xMidYMid meet">
<metadata>
Created by potrace 1.11, written by Peter Selinger 2001-2013
</metadata>
<g transform="translate(0.000000,500.000000) scale(0.100000,-0.100000)"
fill="#000000" stroke="none">
<path d="M670 2600 l0 -1330 160 0 159 0 4 618 c3 555 5 623 21 676 71 238
237 376 473 393 193 14 338 -57 406 -198 62 -127 61 -113 65 -831 l3 -658 155
0 154 0 0 633 c-1 763 -6 816 -96 1003 -95 200 -263 304 -516 321 -167 11
-319 -26 -444 -108 -59 -38 -156 -132 -202 -194 l-21 -30 -1 518 0 517 -160 0
-160 0 0 -1330z"/>
<path d="M3547 3219 c-166 -24 -341 -96 -452 -186 -217 -176 -335 -461 -335
-808 0 -519 261 -882 705 -983 100 -23 371 -22 488 1 86 17 235 65 290 93 l27
15 0 144 0 144 -95 -45 c-52 -25 -138 -57 -192 -71 -85 -23 -119 -26 -248 -27
-138 0 -156 2 -228 27 -198 69 -328 216 -389 442 -18 68 -21 107 -21 260 0
153 3 192 21 260 64 234 204 387 417 452 47 14 91 18 205 17 173 -1 283 -26
435 -98 l95 -45 0 145 0 145 -53 23 c-198 88 -462 125 -670 95z"/>
</g>
</svg>
