<?xml version="1.0" standalone="no"?>
<!DOCTYPE svg PUBLIC "-//W3C//DTD SVG 20010904//EN"
 "http://www.w3.org/TR/2001/REC-SVG-20010904/DTD/svg10.dtd">
<svg version="1.0" xmlns="http://www.w3.org/2000/svg"
 width="500.000000pt" height="500.000000pt" viewBox="0 0 500.000000 500.000000"
 preserveAspectRatio="xMidYMid meet">
<metadata>
Created by potrace 1.11, written by Peter Selinger 2001-2013
</metadata>
<g transform="translate(0.000000,500.000000) scale(0.100000,-0.100000)"
fill="#000000" stroke="none">
<path d="M410 2495 l0 -1445 170 0 169 0 3 156 3 157 32 -50 c139 -215 386
-328 677 -310 171 11 300 58 429 158 137 106 266 307 322 503 53 186 68 434
40 649 -49 371 -234 665 -500 792 -95 46 -171 64 -291 72 -176 10 -351 -30
-477 -110 -67 -43 -155 -131 -199 -199 l-33 -51 -3 562 -2 561 -170 0 -170 0
0 -1445z m1053 380 c156 -33 275 -132 356 -299 70 -143 101 -293 101 -486 0
-193 -31 -343 -101 -486 -101 -207 -266 -314 -484 -314 -218 0 -386 109 -485
315 -69 143 -100 294 -100 485 0 193 31 343 101 486 121 247 344 356 612 299z"/>
<path d="M2820 2495 l0 -1445 169 0 170 0 3 668 c4 742 2 712 75 861 46 96
142 194 233 238 162 79 400 82 527 7 97 -56 152 -134 195 -276 22 -72 22 -81
26 -785 l3 -713 169 0 170 0 0 683 c0 755 -5 823 -60 989 -42 126 -81 190
-164 273 -118 118 -250 171 -451 181 -189 11 -356 -32 -490 -123 -58 -40 -169
-148 -213 -208 l-21 -30 -1 563 0 562 -170 0 -170 0 0 -1445z"/>
</g>
</svg>
